<?xml version="1.0" encoding="UTF-8"?>
<svg width="175px" height="29px" viewBox="0 0 175 29" version="1.1" xmlns="http://www.w3.org/2000/svg" xmlns:xlink="http://www.w3.org/1999/xlink">
    <!-- Generator: sketchtool 52 (66869) - http://www.bohemiancoding.com/sketch -->
    <title>043C6DEC-249D-4D44-A820-E038CA5352C7</title>
    <desc>Created with sketchtool.</desc>
    <g id="Page-2" stroke="none" stroke-width="1" fill="none" fill-rule="evenodd">
        <g id="unregiestered-payment" transform="translate(-41.000000, -39.000000)">
            <g id="Hesab.az-_-Azərbaycanda-ən-böyük-onlayn-xidmətlər-portalı-0" transform="translate(41.000000, 39.000000)">
                <path d="M90.5213484,7 L85.4539326,7 L77,22 C78.0134832,22 79.2988765,21.1652613 79.8921349,20.1281618 L80.3123596,19.3946037 C80.6337079,18.9898819 81.1775281,18.6610455 81.622472,18.6610455 L91.0404495,18.6610455 C91.4606742,18.7116357 91.9303372,18.9898819 92.2269663,19.3693086 L92.6471911,20.1281618 C93.2404495,21.1652613 94.5258427,22 95.5393259,22 L99,22 L90.5213484,7 Z M90.3730338,17.7504216 L80.8067416,17.7504216 L86.0471911,8.44182124 L90.7685394,16.8145025 C91.0404495,17.3204047 90.8674158,17.7504216 90.3730338,17.7504216 Z" id="Shape" fill="#424242" fill-rule="nonzero"></path>
                <path d="M143.521349,7 L138.453933,7 L130,22 C131.013483,22 132.298877,21.1652613 132.892135,20.1281618 L133.31236,19.3946037 C133.633709,18.9898819 134.177529,18.6610455 134.622472,18.6610455 L144.04045,18.6610455 C144.460675,18.7116357 144.930337,18.9898819 145.226966,19.3693086 L145.647191,20.1281618 C146.240449,21.1652613 147.525843,22 148.539326,22 L152,22 L143.521349,7 Z M143.373034,17.7504216 L133.806742,17.7504216 L139.047192,8.44182124 L143.768539,16.8145025 C144.065169,17.3204047 143.867416,17.7504216 143.373034,17.7504216 Z" id="Shape" fill="#424242" fill-rule="nonzero"></path>
                <path d="M120.71181,15.8532884 C120.469183,14.9426645 119.64425,14.2344013 118.625213,14.0573356 L118.625213,13.9814502 C119.280308,13.8043844 119.595724,13.1214165 119.595724,13.1214165 C120.250819,11.4266442 120.226555,9.52951096 119.571462,7.83473862 C119.571462,7.83473862 119.231783,7 118.285535,7 L103,7 L103,14.5126475 L103,20.1281618 C103,21.1652613 103.800671,22 104.795444,22 L118.164221,22 C119.353096,22 120.420658,21.2158517 120.687548,20.1787522 C121.100015,18.762226 121.100015,17.2698145 120.71181,15.8532884 Z M116.514354,19.1922429 C116.514354,20.2293424 115.713683,21.0640809 114.71891,21.0640809 L106.61515,21.0640809 L106.61515,16.8397977 C106.61515,15.8279932 107.415821,14.9679595 108.434857,14.9679595 L114.743173,14.9679595 C115.737946,14.9679595 116.538617,15.8026982 116.538617,16.8397977 L116.538617,19.1922429 L116.514354,19.1922429 Z M115.786472,12.1602023 C115.786472,13.1973018 114.9858,14.0320405 113.991028,14.0320405 L108.410594,14.0320405 C107.415821,14.0320405 106.61515,13.1973018 106.61515,12.1602023 L106.61515,7.93591905 L114.888749,7.93591905 C115.374005,7.93591905 115.786472,8.36593591 115.786472,8.87183811 L115.786472,12.1602023 Z" id="Shape" fill="#424242" fill-rule="nonzero"></path>
                <path d="M128,22 C128,23.1081081 127.108108,24 125.999999,24 C124.891892,24 124,23.1081081 124,22 C124,20.8918919 124.891892,20 125.999999,20 C127.081081,20 128,20.8918919 128,22" id="Shape" fill="#424242"></path>
                <path d="M162.497298,21.0387859 C162.181082,20.9881957 161.937838,20.7352445 161.937838,20.381113 C161.937838,20.1787522 162.035135,19.9763912 162.181082,19.8499158 L173.662162,10.2124789 C174.27027,9.65598651 174.562162,9.25126475 174.683784,8.94772344 C174.781081,8.77065767 174.829729,8.56829679 174.829729,8.34064081 C174.829729,7.58178752 174.245946,7 173.54054,7 L157.316216,7 C157.316216,7.50590219 157.72973,7.93591905 158.216216,7.93591905 L169.794595,7.96121416 C169.916216,7.98650927 169.989189,8.08768971 169.989189,8.18887015 C169.989189,8.26475548 169.94054,8.34064081 169.891892,8.39123103 L157.559459,18.8381113 C157.218919,19.1669477 157,19.6475548 157,20.1787522 C157,21.1652613 157.754055,21.974705 158.702703,22 L158.824325,22 L174.1,22 C174.586486,22 175,21.5699832 175,21.0640809 L162.497298,21.0387859 Z" id="Shape" fill="#424242"></path>
                <path d="M14.4048583,12.1515151 C14.4048583,13.1868687 13.6032388,14.020202 12.6072874,14.020202 L5.39271254,14.020202 C4.39676113,14.020202 3.59514169,13.1868687 3.59514169,12.1515151 L3.59514169,7 L0,7 L0,14.5 L0,22 L3.59514169,22 L3.59514169,16.8484849 C3.59514169,15.8383839 4.37246963,14.979798 5.39271254,14.979798 L12.6072874,14.979798 C13.6032388,14.979798 14.4048583,15.8383839 14.4048583,16.8484849 L14.4048583,22 L18,22 L18,14.5 L18,7 L14.4048583,7 L14.4048583,12.1515151 Z" id="Shape" fill="#424242"></path>
                <path d="M69.6923077,15.0185497 L58.4939272,10.7689713 C57.9595142,10.5413154 57.5951418,10.010118 57.5951418,9.40303541 C57.5951418,8.61888701 58.1538462,7.98650927 58.8825912,7.93591905 L58.9068827,7.93591905 L59.0040486,7.93591905 L71.1012146,7.93591905 C71.5870445,7.93591905 72,7.50590219 72,7 L57.4493927,7 C55.5546559,7 54,8.61888701 54,10.5919056 C54,12.0337268 54.825911,13.2984823 56.0161944,13.8549747 L66.437247,17.8010118 C67.0688259,18.0286678 67.5060729,18.6610455 67.5060729,19.3946037 C67.5060729,20.3305228 66.7773279,21.0640809 65.902834,21.0640809 L54.242915,21.0640809 C54.5587044,21.6205734 55.1417004,22 55.7975709,22 L55.7732794,22 L68.5506073,22 C70.4453441,22 71.9757085,20.4064081 71.9757085,18.4333896 C72.0242915,16.8397977 71.0526316,15.4991568 69.6923077,15.0185497" id="Shape" fill="#424242"></path>
                <path d="M23.2454089,14.4877776 C21.8120654,22.5038194 26.8040546,29 34.3908898,29 C40.1489765,29 45.7093606,25.2738889 48.6996116,19.9788888 C48.6996116,19.9788888 44.4490068,20.5181944 43.2627915,21.3761805 C43.1145146,21.4742361 42.8673865,21.7929166 42.8673865,21.7929166 C40.2972534,25.0777778 36.6150434,27.235 32.883408,27.235 C26.8040546,27.235 22.8994294,21.5477777 24.1597831,14.5122916 C25.4201369,7.47680535 31.3512133,1.78958306 37.4058536,1.78958306 C40.9892122,1.78958306 43.7817607,3.79972197 45.2892426,6.86395812 C45.511658,7.30520812 45.1409657,7.42777756 45.1409657,7.42777756 L33.7977822,13.8013888 C33.7977822,13.8013888 33.3035258,14.0465276 33.3529515,13.4827082 C33.3529515,13.4827082 34.1437617,7.52583312 34.3908898,5.5402081 C34.4156026,5.41763866 34.366177,5.36861087 34.366177,5.34409699 C34.2920386,5.24604143 34.1684745,5.09895809 34.094336,5.00090254 C34.0449103,4.95187477 33.9954848,5.00090254 33.9954848,5.04993032 C33.5506541,7.50131923 32.2655875,14.8309721 32.2655875,14.8309721 C32.2655875,14.8309721 32.2903003,14.9535415 32.3891516,14.9290276 C33.9213463,14.2671527 47.1921296,8.55541647 49.5398473,7.52583312 C50.0588165,7.30520812 50.0341037,6.88847201 49.9599653,6.71687478 C48.230068,2.67208307 44.4490068,6.91513573e-05 39.5805816,6.91513573e-05 C31.9690337,-0.0244447378 24.6787523,6.47173589 23.2454089,14.4877776" id="SVGID_5_" fill="#039BE5"></path>
            </g>
        </g>
    </g>
</svg>